<mxfile host="Electron" modified="2025-01-24T13:19:59.074Z" agent="Mozilla/5.0 (Windows NT 10.0; Win64; x64) AppleWebKit/537.36 (KHTML, like Gecko) draw.io/23.1.5 Chrome/120.0.6099.109 Electron/28.1.0 Safari/537.36" etag="3RJgqU59eFBR9HSbofN6" version="23.1.5" type="device">
  <diagram name="Страница — 1" id="gU2KTvWLerMa6CmAamIQ">
    <mxGraphModel dx="1105" dy="662" grid="1" gridSize="10" guides="1" tooltips="1" connect="1" arrows="1" fold="1" page="1" pageScale="1" pageWidth="1169" pageHeight="827" math="0" shadow="0">
      <root>
        <mxCell id="0" />
        <mxCell id="1" parent="0" />
        <mxCell id="M14URrgiXo2bHLEp-OKY-1" value="" style="shape=umlLifeline;perimeter=lifelinePerimeter;whiteSpace=wrap;html=1;container=1;dropTarget=0;collapsible=0;recursiveResize=0;outlineConnect=0;portConstraint=eastwest;newEdgeStyle={&quot;curved&quot;:0,&quot;rounded&quot;:0};participant=umlActor;size=30;" vertex="1" parent="1">
          <mxGeometry x="890" y="40" width="20" height="900" as="geometry" />
        </mxCell>
        <mxCell id="M14URrgiXo2bHLEp-OKY-2" value="" style="html=1;points=[[0,0,0,0,5],[0,1,0,0,-5],[1,0,0,0,5],[1,1,0,0,-5]];perimeter=orthogonalPerimeter;outlineConnect=0;targetShapes=umlLifeline;portConstraint=eastwest;newEdgeStyle={&quot;curved&quot;:0,&quot;rounded&quot;:0};" vertex="1" parent="M14URrgiXo2bHLEp-OKY-1">
          <mxGeometry x="5" y="50" width="10" height="810" as="geometry" />
        </mxCell>
        <mxCell id="M14URrgiXo2bHLEp-OKY-3" value="редактировать" style="html=1;verticalAlign=bottom;startArrow=oval;startFill=1;endArrow=block;startSize=8;curved=0;rounded=0;entryX=0.13;entryY=0.109;entryDx=0;entryDy=0;entryPerimeter=0;" edge="1" parent="1" source="M14URrgiXo2bHLEp-OKY-2" target="M14URrgiXo2bHLEp-OKY-5">
          <mxGeometry width="60" relative="1" as="geometry">
            <mxPoint x="910" y="120" as="sourcePoint" />
            <mxPoint x="1024" y="120" as="targetPoint" />
          </mxGeometry>
        </mxCell>
        <mxCell id="M14URrgiXo2bHLEp-OKY-4" value="AlbumsView (index.html.erb)" style="shape=umlLifeline;perimeter=lifelinePerimeter;whiteSpace=wrap;html=1;container=1;dropTarget=0;collapsible=0;recursiveResize=0;outlineConnect=0;portConstraint=eastwest;newEdgeStyle={&quot;curved&quot;:0,&quot;rounded&quot;:0};" vertex="1" parent="1">
          <mxGeometry x="974" y="40" width="100" height="900" as="geometry" />
        </mxCell>
        <mxCell id="M14URrgiXo2bHLEp-OKY-5" value="" style="html=1;points=[[0,0,0,0,5],[0,1,0,0,-5],[1,0,0,0,5],[1,1,0,0,-5]];perimeter=orthogonalPerimeter;outlineConnect=0;targetShapes=umlLifeline;portConstraint=eastwest;newEdgeStyle={&quot;curved&quot;:0,&quot;rounded&quot;:0};" vertex="1" parent="M14URrgiXo2bHLEp-OKY-4">
          <mxGeometry x="45" y="60" width="10" height="90" as="geometry" />
        </mxCell>
        <mxCell id="M14URrgiXo2bHLEp-OKY-6" value="AlbumsController" style="shape=umlLifeline;perimeter=lifelinePerimeter;whiteSpace=wrap;html=1;container=1;dropTarget=0;collapsible=0;recursiveResize=0;outlineConnect=0;portConstraint=eastwest;newEdgeStyle={&quot;curved&quot;:0,&quot;rounded&quot;:0};" vertex="1" parent="1">
          <mxGeometry x="1180" y="40" width="100" height="910" as="geometry" />
        </mxCell>
        <mxCell id="M14URrgiXo2bHLEp-OKY-7" value="" style="html=1;points=[[0,0,0,0,5],[0,1,0,0,-5],[1,0,0,0,5],[1,1,0,0,-5]];perimeter=orthogonalPerimeter;outlineConnect=0;targetShapes=umlLifeline;portConstraint=eastwest;newEdgeStyle={&quot;curved&quot;:0,&quot;rounded&quot;:0};" vertex="1" parent="M14URrgiXo2bHLEp-OKY-6">
          <mxGeometry x="45" y="70" width="10" height="170" as="geometry" />
        </mxCell>
        <mxCell id="M14URrgiXo2bHLEp-OKY-8" value="" style="html=1;points=[[0,0,0,0,5],[0,1,0,0,-5],[1,0,0,0,5],[1,1,0,0,-5]];perimeter=orthogonalPerimeter;outlineConnect=0;targetShapes=umlLifeline;portConstraint=eastwest;newEdgeStyle={&quot;curved&quot;:0,&quot;rounded&quot;:0};" vertex="1" parent="M14URrgiXo2bHLEp-OKY-6">
          <mxGeometry x="45" y="310" width="10" height="220" as="geometry" />
        </mxCell>
        <mxCell id="M14URrgiXo2bHLEp-OKY-9" value="" style="html=1;points=[[0,0,0,0,5],[0,1,0,0,-5],[1,0,0,0,5],[1,1,0,0,-5]];perimeter=orthogonalPerimeter;outlineConnect=0;targetShapes=umlLifeline;portConstraint=eastwest;newEdgeStyle={&quot;curved&quot;:0,&quot;rounded&quot;:0};" vertex="1" parent="M14URrgiXo2bHLEp-OKY-6">
          <mxGeometry x="45" y="560" width="10" height="230" as="geometry" />
        </mxCell>
        <mxCell id="M14URrgiXo2bHLEp-OKY-10" style="edgeStyle=orthogonalEdgeStyle;rounded=0;orthogonalLoop=1;jettySize=auto;html=1;curved=0;exitX=1;exitY=1;exitDx=0;exitDy=-5;exitPerimeter=0;entryX=1;entryY=0;entryDx=0;entryDy=5;entryPerimeter=0;" edge="1" parent="M14URrgiXo2bHLEp-OKY-6" source="M14URrgiXo2bHLEp-OKY-8" target="M14URrgiXo2bHLEp-OKY-9">
          <mxGeometry relative="1" as="geometry" />
        </mxCell>
        <mxCell id="M14URrgiXo2bHLEp-OKY-11" value="Artist" style="shape=umlLifeline;perimeter=lifelinePerimeter;whiteSpace=wrap;html=1;container=1;dropTarget=0;collapsible=0;recursiveResize=0;outlineConnect=0;portConstraint=eastwest;newEdgeStyle={&quot;curved&quot;:0,&quot;rounded&quot;:0};" vertex="1" parent="1">
          <mxGeometry x="1570" y="40" width="100" height="910" as="geometry" />
        </mxCell>
        <mxCell id="M14URrgiXo2bHLEp-OKY-12" value="" style="html=1;points=[[0,0,0,0,5],[0,1,0,0,-5],[1,0,0,0,5],[1,1,0,0,-5]];perimeter=orthogonalPerimeter;outlineConnect=0;targetShapes=umlLifeline;portConstraint=eastwest;newEdgeStyle={&quot;curved&quot;:0,&quot;rounded&quot;:0};" vertex="1" parent="M14URrgiXo2bHLEp-OKY-11">
          <mxGeometry x="45" y="90" width="10" height="70" as="geometry" />
        </mxCell>
        <mxCell id="M14URrgiXo2bHLEp-OKY-13" value="" style="html=1;points=[[0,0,0,0,5],[0,1,0,0,-5],[1,0,0,0,5],[1,1,0,0,-5]];perimeter=orthogonalPerimeter;outlineConnect=0;targetShapes=umlLifeline;portConstraint=eastwest;newEdgeStyle={&quot;curved&quot;:0,&quot;rounded&quot;:0};" vertex="1" parent="M14URrgiXo2bHLEp-OKY-11">
          <mxGeometry x="45" y="580" width="10" height="70" as="geometry" />
        </mxCell>
        <mxCell id="M14URrgiXo2bHLEp-OKY-14" value="" style="html=1;points=[[0,0,0,0,5],[0,1,0,0,-5],[1,0,0,0,5],[1,1,0,0,-5]];perimeter=orthogonalPerimeter;outlineConnect=0;targetShapes=umlLifeline;portConstraint=eastwest;newEdgeStyle={&quot;curved&quot;:0,&quot;rounded&quot;:0};" vertex="1" parent="M14URrgiXo2bHLEp-OKY-11">
          <mxGeometry x="45" y="320" width="10" height="60" as="geometry" />
        </mxCell>
        <mxCell id="M14URrgiXo2bHLEp-OKY-15" value="AlbumsView (edit.html.erb)" style="shape=umlLifeline;perimeter=lifelinePerimeter;whiteSpace=wrap;html=1;container=1;dropTarget=0;collapsible=0;recursiveResize=0;outlineConnect=0;portConstraint=eastwest;newEdgeStyle={&quot;curved&quot;:0,&quot;rounded&quot;:0};" vertex="1" parent="1">
          <mxGeometry x="1370" y="40" width="140" height="910" as="geometry" />
        </mxCell>
        <mxCell id="M14URrgiXo2bHLEp-OKY-16" value="" style="html=1;points=[[0,0,0,0,5],[0,1,0,0,-5],[1,0,0,0,5],[1,1,0,0,-5]];perimeter=orthogonalPerimeter;outlineConnect=0;targetShapes=umlLifeline;portConstraint=eastwest;newEdgeStyle={&quot;curved&quot;:0,&quot;rounded&quot;:0};" vertex="1" parent="M14URrgiXo2bHLEp-OKY-15">
          <mxGeometry x="65" y="220" width="10" height="110" as="geometry" />
        </mxCell>
        <mxCell id="M14URrgiXo2bHLEp-OKY-17" value="Database" style="shape=umlLifeline;perimeter=lifelinePerimeter;whiteSpace=wrap;html=1;container=1;dropTarget=0;collapsible=0;recursiveResize=0;outlineConnect=0;portConstraint=eastwest;newEdgeStyle={&quot;curved&quot;:0,&quot;rounded&quot;:0};" vertex="1" parent="1">
          <mxGeometry x="1820" y="40" width="110" height="910" as="geometry" />
        </mxCell>
        <mxCell id="M14URrgiXo2bHLEp-OKY-18" value="" style="html=1;points=[[0,0,0,0,5],[0,1,0,0,-5],[1,0,0,0,5],[1,1,0,0,-5]];perimeter=orthogonalPerimeter;outlineConnect=0;targetShapes=umlLifeline;portConstraint=eastwest;newEdgeStyle={&quot;curved&quot;:0,&quot;rounded&quot;:0};" vertex="1" parent="M14URrgiXo2bHLEp-OKY-17">
          <mxGeometry x="50" y="390" width="10" height="40" as="geometry" />
        </mxCell>
        <mxCell id="M14URrgiXo2bHLEp-OKY-19" value="" style="html=1;points=[[0,0,0,0,5],[0,1,0,0,-5],[1,0,0,0,5],[1,1,0,0,-5]];perimeter=orthogonalPerimeter;outlineConnect=0;targetShapes=umlLifeline;portConstraint=eastwest;newEdgeStyle={&quot;curved&quot;:0,&quot;rounded&quot;:0};" vertex="1" parent="M14URrgiXo2bHLEp-OKY-17">
          <mxGeometry x="50" y="580" width="10" height="70" as="geometry" />
        </mxCell>
        <mxCell id="M14URrgiXo2bHLEp-OKY-20" value="" style="html=1;points=[[0,0,0,0,5],[0,1,0,0,-5],[1,0,0,0,5],[1,1,0,0,-5]];perimeter=orthogonalPerimeter;outlineConnect=0;targetShapes=umlLifeline;portConstraint=eastwest;newEdgeStyle={&quot;curved&quot;:0,&quot;rounded&quot;:0};" vertex="1" parent="M14URrgiXo2bHLEp-OKY-17">
          <mxGeometry x="50" y="80" width="10" height="70" as="geometry" />
        </mxCell>
        <mxCell id="M14URrgiXo2bHLEp-OKY-21" value="" style="html=1;points=[[0,0,0,0,5],[0,1,0,0,-5],[1,0,0,0,5],[1,1,0,0,-5]];perimeter=orthogonalPerimeter;outlineConnect=0;targetShapes=umlLifeline;portConstraint=eastwest;newEdgeStyle={&quot;curved&quot;:0,&quot;rounded&quot;:0};" vertex="1" parent="M14URrgiXo2bHLEp-OKY-17">
          <mxGeometry x="50" y="330" width="10" height="40" as="geometry" />
        </mxCell>
        <mxCell id="M14URrgiXo2bHLEp-OKY-22" value="Выбранная запись" style="html=1;verticalAlign=bottom;endArrow=open;dashed=1;endSize=8;curved=0;rounded=0;" edge="1" parent="M14URrgiXo2bHLEp-OKY-17" source="M14URrgiXo2bHLEp-OKY-21">
          <mxGeometry relative="1" as="geometry">
            <mxPoint x="60" y="360" as="sourcePoint" />
            <mxPoint x="-195" y="361" as="targetPoint" />
          </mxGeometry>
        </mxCell>
        <mxCell id="M14URrgiXo2bHLEp-OKY-23" value="" style="html=1;points=[[0,0,0,0,5],[0,1,0,0,-5],[1,0,0,0,5],[1,1,0,0,-5]];perimeter=orthogonalPerimeter;outlineConnect=0;targetShapes=umlLifeline;portConstraint=eastwest;newEdgeStyle={&quot;curved&quot;:0,&quot;rounded&quot;:0};" vertex="1" parent="M14URrgiXo2bHLEp-OKY-17">
          <mxGeometry x="50" y="170" width="10" height="50" as="geometry" />
        </mxCell>
        <mxCell id="M14URrgiXo2bHLEp-OKY-24" value="" style="html=1;points=[[0,0,0,0,5],[0,1,0,0,-5],[1,0,0,0,5],[1,1,0,0,-5]];perimeter=orthogonalPerimeter;outlineConnect=0;targetShapes=umlLifeline;portConstraint=eastwest;newEdgeStyle={&quot;curved&quot;:0,&quot;rounded&quot;:0};" vertex="1" parent="M14URrgiXo2bHLEp-OKY-17">
          <mxGeometry x="50" y="470" width="10" height="40" as="geometry" />
        </mxCell>
        <mxCell id="M14URrgiXo2bHLEp-OKY-25" value="" style="html=1;points=[[0,0,0,0,5],[0,1,0,0,-5],[1,0,0,0,5],[1,1,0,0,-5]];perimeter=orthogonalPerimeter;outlineConnect=0;targetShapes=umlLifeline;portConstraint=eastwest;newEdgeStyle={&quot;curved&quot;:0,&quot;rounded&quot;:0};" vertex="1" parent="M14URrgiXo2bHLEp-OKY-17">
          <mxGeometry x="50" y="680" width="10" height="50" as="geometry" />
        </mxCell>
        <mxCell id="M14URrgiXo2bHLEp-OKY-26" value="Рендер edit.html" style="html=1;verticalAlign=bottom;endArrow=open;curved=0;rounded=0;endFill=0;entryX=-0.163;entryY=0.084;entryDx=0;entryDy=0;entryPerimeter=0;" edge="1" parent="1" source="M14URrgiXo2bHLEp-OKY-7" target="M14URrgiXo2bHLEp-OKY-16">
          <mxGeometry relative="1" as="geometry">
            <mxPoint x="1240.03" y="269.99999999999994" as="sourcePoint" />
            <mxPoint x="1430" y="270" as="targetPoint" />
          </mxGeometry>
        </mxCell>
        <mxCell id="M14URrgiXo2bHLEp-OKY-27" value="Форма редактирования альбома" style="html=1;verticalAlign=bottom;endArrow=open;dashed=1;endSize=8;curved=0;rounded=0;entryX=0.9;entryY=0.246;entryDx=0;entryDy=0;entryPerimeter=0;" edge="1" parent="1" source="M14URrgiXo2bHLEp-OKY-16" target="M14URrgiXo2bHLEp-OKY-2">
          <mxGeometry relative="1" as="geometry">
            <mxPoint x="1430" y="290" as="sourcePoint" />
            <mxPoint x="910" y="290" as="targetPoint" />
          </mxGeometry>
        </mxCell>
        <mxCell id="M14URrgiXo2bHLEp-OKY-28" value="Заполняет форму" style="html=1;verticalAlign=bottom;endArrow=open;curved=0;rounded=0;endFill=0;entryX=0.052;entryY=0.727;entryDx=0;entryDy=0;entryPerimeter=0;" edge="1" parent="1">
          <mxGeometry relative="1" as="geometry">
            <mxPoint x="905" y="310" as="sourcePoint" />
            <mxPoint x="1435.52" y="310" as="targetPoint" />
          </mxGeometry>
        </mxCell>
        <mxCell id="M14URrgiXo2bHLEp-OKY-29" value="Отправляет форму&amp;nbsp;PUT /artists/:artist_id/albums/:id" style="html=1;verticalAlign=bottom;endArrow=open;curved=0;rounded=0;endFill=0;entryX=1.023;entryY=0.168;entryDx=0;entryDy=0;entryPerimeter=0;" edge="1" parent="1" source="M14URrgiXo2bHLEp-OKY-16">
          <mxGeometry relative="1" as="geometry">
            <mxPoint x="1430" y="360" as="sourcePoint" />
            <mxPoint x="1235.23" y="360" as="targetPoint" />
          </mxGeometry>
        </mxCell>
        <mxCell id="M14URrgiXo2bHLEp-OKY-30" value="find(:id)" style="html=1;verticalAlign=bottom;endArrow=open;curved=0;rounded=0;endFill=0;exitX=0.978;exitY=0.607;exitDx=0;exitDy=0;exitPerimeter=0;" edge="1" parent="1">
          <mxGeometry relative="1" as="geometry">
            <mxPoint x="1234.7800000000002" y="430.0000000000001" as="sourcePoint" />
            <mxPoint x="1745" y="430.0000000000001" as="targetPoint" />
          </mxGeometry>
        </mxCell>
        <mxCell id="M14URrgiXo2bHLEp-OKY-31" value="Данные альбома" style="html=1;verticalAlign=bottom;endArrow=open;dashed=1;endSize=8;curved=0;rounded=0;" edge="1" parent="1" source="M14URrgiXo2bHLEp-OKY-37">
          <mxGeometry relative="1" as="geometry">
            <mxPoint x="1616.8000000000002" y="469.99500000000006" as="sourcePoint" />
            <mxPoint x="1235" y="469.99500000000006" as="targetPoint" />
          </mxGeometry>
        </mxCell>
        <mxCell id="M14URrgiXo2bHLEp-OKY-32" value="&lt;span style=&quot;color: rgb(0, 0, 0); font-family: Helvetica; font-size: 11px; font-style: normal; font-variant-ligatures: normal; font-variant-caps: normal; font-weight: 400; letter-spacing: normal; orphans: 2; text-align: center; text-indent: 0px; text-transform: none; widows: 2; word-spacing: 0px; -webkit-text-stroke-width: 0px; background-color: rgb(255, 255, 255); text-decoration-thickness: initial; text-decoration-style: initial; text-decoration-color: initial; float: none; display: inline !important;&quot;&gt;GET /artists/:artist_id/albums/:id&lt;/span&gt;" style="text;whiteSpace=wrap;html=1;" vertex="1" parent="1">
          <mxGeometry x="1250" y="570" width="180" height="20" as="geometry" />
        </mxCell>
        <mxCell id="M14URrgiXo2bHLEp-OKY-33" value="find(:artist_id)" style="html=1;verticalAlign=bottom;endArrow=open;curved=0;rounded=0;endFill=0;entryX=-0.002;entryY=0.266;entryDx=0;entryDy=0;entryPerimeter=0;" edge="1" parent="1" source="M14URrgiXo2bHLEp-OKY-9" target="M14URrgiXo2bHLEp-OKY-13">
          <mxGeometry relative="1" as="geometry">
            <mxPoint x="1250" y="549" as="sourcePoint" />
            <mxPoint x="1610" y="549" as="targetPoint" />
          </mxGeometry>
        </mxCell>
        <mxCell id="M14URrgiXo2bHLEp-OKY-34" value="SELECT * FROM artists WHERE id = {artist_id}" style="html=1;verticalAlign=bottom;endArrow=open;curved=0;rounded=0;endFill=0;entryX=-0.143;entryY=0.422;entryDx=0;entryDy=0;entryPerimeter=0;" edge="1" parent="1" source="M14URrgiXo2bHLEp-OKY-13" target="M14URrgiXo2bHLEp-OKY-19">
          <mxGeometry relative="1" as="geometry">
            <mxPoint x="1370" y="500" as="sourcePoint" />
            <mxPoint x="1750" y="500" as="targetPoint" />
          </mxGeometry>
        </mxCell>
        <mxCell id="M14URrgiXo2bHLEp-OKY-35" value="Выбранная запись" style="html=1;verticalAlign=bottom;endArrow=open;dashed=1;endSize=8;curved=0;rounded=0;exitX=-0.086;exitY=0.701;exitDx=0;exitDy=0;exitPerimeter=0;" edge="1" parent="1" source="M14URrgiXo2bHLEp-OKY-19" target="M14URrgiXo2bHLEp-OKY-13">
          <mxGeometry relative="1" as="geometry">
            <mxPoint x="1780" y="500" as="sourcePoint" />
            <mxPoint x="1400" y="500" as="targetPoint" />
          </mxGeometry>
        </mxCell>
        <mxCell id="M14URrgiXo2bHLEp-OKY-36" value="Album" style="shape=umlLifeline;perimeter=lifelinePerimeter;whiteSpace=wrap;html=1;container=1;dropTarget=0;collapsible=0;recursiveResize=0;outlineConnect=0;portConstraint=eastwest;newEdgeStyle={&quot;curved&quot;:0,&quot;rounded&quot;:0};" vertex="1" parent="1">
          <mxGeometry x="1700" y="40" width="100" height="910" as="geometry" />
        </mxCell>
        <mxCell id="M14URrgiXo2bHLEp-OKY-37" value="" style="html=1;points=[[0,0,0,0,5],[0,1,0,0,-5],[1,0,0,0,5],[1,1,0,0,-5]];perimeter=orthogonalPerimeter;outlineConnect=0;targetShapes=umlLifeline;portConstraint=eastwest;newEdgeStyle={&quot;curved&quot;:0,&quot;rounded&quot;:0};" vertex="1" parent="M14URrgiXo2bHLEp-OKY-36">
          <mxGeometry x="45" y="380" width="10" height="70" as="geometry" />
        </mxCell>
        <mxCell id="M14URrgiXo2bHLEp-OKY-38" value="" style="html=1;points=[[0,0,0,0,5],[0,1,0,0,-5],[1,0,0,0,5],[1,1,0,0,-5]];perimeter=orthogonalPerimeter;outlineConnect=0;targetShapes=umlLifeline;portConstraint=eastwest;newEdgeStyle={&quot;curved&quot;:0,&quot;rounded&quot;:0};" vertex="1" parent="M14URrgiXo2bHLEp-OKY-36">
          <mxGeometry x="45" y="160" width="10" height="70" as="geometry" />
        </mxCell>
        <mxCell id="M14URrgiXo2bHLEp-OKY-39" value="" style="html=1;points=[[0,0,0,0,5],[0,1,0,0,-5],[1,0,0,0,5],[1,1,0,0,-5]];perimeter=orthogonalPerimeter;outlineConnect=0;targetShapes=umlLifeline;portConstraint=eastwest;newEdgeStyle={&quot;curved&quot;:0,&quot;rounded&quot;:0};" vertex="1" parent="M14URrgiXo2bHLEp-OKY-36">
          <mxGeometry x="45" y="460" width="10" height="70" as="geometry" />
        </mxCell>
        <mxCell id="M14URrgiXo2bHLEp-OKY-40" value="" style="html=1;points=[[0,0,0,0,5],[0,1,0,0,-5],[1,0,0,0,5],[1,1,0,0,-5]];perimeter=orthogonalPerimeter;outlineConnect=0;targetShapes=umlLifeline;portConstraint=eastwest;newEdgeStyle={&quot;curved&quot;:0,&quot;rounded&quot;:0};" vertex="1" parent="M14URrgiXo2bHLEp-OKY-36">
          <mxGeometry x="45" y="670" width="10" height="70" as="geometry" />
        </mxCell>
        <mxCell id="M14URrgiXo2bHLEp-OKY-41" value="find(:artist_id)" style="html=1;verticalAlign=bottom;endArrow=open;curved=0;rounded=0;endFill=0;exitX=1.028;exitY=0.188;exitDx=0;exitDy=0;exitPerimeter=0;" edge="1" parent="1">
          <mxGeometry relative="1" as="geometry">
            <mxPoint x="1235.2800000000002" y="140.00000000000003" as="sourcePoint" />
            <mxPoint x="1615" y="140.00000000000003" as="targetPoint" />
          </mxGeometry>
        </mxCell>
        <mxCell id="M14URrgiXo2bHLEp-OKY-42" value="Данные артиста" style="html=1;verticalAlign=bottom;endArrow=open;dashed=1;endSize=8;curved=0;rounded=0;exitX=0.088;exitY=0.435;exitDx=0;exitDy=0;exitPerimeter=0;" edge="1" parent="1">
          <mxGeometry relative="1" as="geometry">
            <mxPoint x="1615.88" y="180.39999999999998" as="sourcePoint" />
            <mxPoint x="1235" y="180" as="targetPoint" />
            <Array as="points">
              <mxPoint x="1550" y="180" />
            </Array>
          </mxGeometry>
        </mxCell>
        <mxCell id="M14URrgiXo2bHLEp-OKY-43" value="find(:artist_id)" style="html=1;verticalAlign=bottom;endArrow=open;curved=0;rounded=0;endFill=0;entryX=0;entryY=0;entryDx=0;entryDy=5;entryPerimeter=0;" edge="1" parent="1">
          <mxGeometry relative="1" as="geometry">
            <mxPoint x="1235" y="379.74" as="sourcePoint" />
            <mxPoint x="1615" y="379.74" as="targetPoint" />
          </mxGeometry>
        </mxCell>
        <mxCell id="M14URrgiXo2bHLEp-OKY-44" value="Данные артиста" style="html=1;verticalAlign=bottom;endArrow=open;dashed=1;endSize=8;curved=0;rounded=0;" edge="1" parent="1">
          <mxGeometry relative="1" as="geometry">
            <mxPoint x="1615" y="410" as="sourcePoint" />
            <mxPoint x="1235" y="410" as="targetPoint" />
            <Array as="points">
              <mxPoint x="1545" y="410" />
            </Array>
          </mxGeometry>
        </mxCell>
        <mxCell id="M14URrgiXo2bHLEp-OKY-45" value="Выбранная запись" style="html=1;verticalAlign=bottom;endArrow=open;dashed=1;endSize=8;curved=0;rounded=0;exitX=0.141;exitY=0.679;exitDx=0;exitDy=0;exitPerimeter=0;" edge="1" parent="1" source="M14URrgiXo2bHLEp-OKY-20" target="M14URrgiXo2bHLEp-OKY-12">
          <mxGeometry relative="1" as="geometry">
            <mxPoint x="1880" y="170" as="sourcePoint" />
            <mxPoint x="1430" y="171" as="targetPoint" />
          </mxGeometry>
        </mxCell>
        <mxCell id="M14URrgiXo2bHLEp-OKY-46" value="SELECT * FROM artists WHERE id = {artist_id}" style="html=1;verticalAlign=bottom;endArrow=open;curved=0;rounded=0;endFill=0;entryX=-0.054;entryY=0.435;entryDx=0;entryDy=0;entryPerimeter=0;" edge="1" parent="1" source="M14URrgiXo2bHLEp-OKY-12" target="M14URrgiXo2bHLEp-OKY-20">
          <mxGeometry relative="1" as="geometry">
            <mxPoint x="1630" y="140" as="sourcePoint" />
            <mxPoint x="1875" y="150" as="targetPoint" />
          </mxGeometry>
        </mxCell>
        <mxCell id="M14URrgiXo2bHLEp-OKY-47" value="SELECT * FROM artists WHERE id = {artist_id}" style="html=1;verticalAlign=bottom;endArrow=open;curved=0;rounded=0;endFill=0;entryX=-0.054;entryY=0.435;entryDx=0;entryDy=0;entryPerimeter=0;" edge="1" parent="1">
          <mxGeometry relative="1" as="geometry">
            <mxPoint x="1625.54" y="384.74" as="sourcePoint" />
            <mxPoint x="1870" y="384.89" as="targetPoint" />
          </mxGeometry>
        </mxCell>
        <mxCell id="M14URrgiXo2bHLEp-OKY-48" value="SELECT * FROM albums WHERE id = {id}" style="html=1;verticalAlign=bottom;endArrow=open;curved=0;rounded=0;endFill=0;" edge="1" parent="1" source="M14URrgiXo2bHLEp-OKY-37">
          <mxGeometry x="-0.0351" y="10" relative="1" as="geometry">
            <mxPoint x="1754" y="440" as="sourcePoint" />
            <mxPoint x="1869" y="440" as="targetPoint" />
            <mxPoint as="offset" />
          </mxGeometry>
        </mxCell>
        <mxCell id="M14URrgiXo2bHLEp-OKY-49" value="Выбранная запись" style="html=1;verticalAlign=bottom;endArrow=open;dashed=1;endSize=8;curved=0;rounded=0;" edge="1" parent="1">
          <mxGeometry relative="1" as="geometry">
            <mxPoint x="1869" y="460" as="sourcePoint" />
            <mxPoint x="1754" y="460" as="targetPoint" />
          </mxGeometry>
        </mxCell>
        <mxCell id="M14URrgiXo2bHLEp-OKY-51" value="GET /artists/:artist_id/albums/:id/edit" style="html=1;verticalAlign=bottom;endArrow=open;curved=0;rounded=0;endFill=0;entryX=0.06;entryY=0.106;entryDx=0;entryDy=0;entryPerimeter=0;" edge="1" parent="1" source="M14URrgiXo2bHLEp-OKY-5" target="M14URrgiXo2bHLEp-OKY-7">
          <mxGeometry x="-0.0743" relative="1" as="geometry">
            <mxPoint x="1028.9999999999998" y="120" as="sourcePoint" />
            <mxPoint x="1283.43" y="125.44000000000005" as="targetPoint" />
            <mxPoint as="offset" />
          </mxGeometry>
        </mxCell>
        <mxCell id="M14URrgiXo2bHLEp-OKY-52" value="find(:id)" style="html=1;verticalAlign=bottom;endArrow=open;curved=0;rounded=0;endFill=0;entryX=-0.2;entryY=0.174;entryDx=0;entryDy=0;entryPerimeter=0;" edge="1" parent="1" source="M14URrgiXo2bHLEp-OKY-7" target="M14URrgiXo2bHLEp-OKY-38">
          <mxGeometry relative="1" as="geometry">
            <mxPoint x="1240" y="210" as="sourcePoint" />
            <mxPoint x="1739" y="210" as="targetPoint" />
          </mxGeometry>
        </mxCell>
        <mxCell id="M14URrgiXo2bHLEp-OKY-53" value="Данные альбома" style="html=1;verticalAlign=bottom;endArrow=open;dashed=1;endSize=8;curved=0;rounded=0;exitX=-0.05;exitY=0.716;exitDx=0;exitDy=0;exitPerimeter=0;" edge="1" parent="1" source="M14URrgiXo2bHLEp-OKY-38" target="M14URrgiXo2bHLEp-OKY-7">
          <mxGeometry relative="1" as="geometry">
            <mxPoint x="1740" y="250" as="sourcePoint" />
            <mxPoint x="1240" y="250" as="targetPoint" />
          </mxGeometry>
        </mxCell>
        <mxCell id="M14URrgiXo2bHLEp-OKY-54" value="SELECT * FROM albums WHERE id = {id}" style="html=1;verticalAlign=bottom;endArrow=open;curved=0;rounded=0;endFill=0;exitX=0.941;exitY=0.283;exitDx=0;exitDy=0;exitPerimeter=0;" edge="1" parent="1" source="M14URrgiXo2bHLEp-OKY-38" target="M14URrgiXo2bHLEp-OKY-23">
          <mxGeometry relative="1" as="geometry">
            <mxPoint x="1760" y="220" as="sourcePoint" />
            <mxPoint x="1867.5" y="220" as="targetPoint" />
          </mxGeometry>
        </mxCell>
        <mxCell id="M14URrgiXo2bHLEp-OKY-55" value="Выбранная запись" style="html=1;verticalAlign=bottom;endArrow=open;dashed=1;endSize=8;curved=0;rounded=0;" edge="1" parent="1">
          <mxGeometry relative="1" as="geometry">
            <mxPoint x="1869.5" y="240" as="sourcePoint" />
            <mxPoint x="1753.5" y="240" as="targetPoint" />
          </mxGeometry>
        </mxCell>
        <mxCell id="M14URrgiXo2bHLEp-OKY-56" value="update" style="html=1;verticalAlign=bottom;endArrow=open;curved=0;rounded=0;endFill=0;" edge="1" parent="1" target="M14URrgiXo2bHLEp-OKY-39">
          <mxGeometry relative="1" as="geometry">
            <mxPoint x="1235" y="510" as="sourcePoint" />
            <mxPoint x="1460" y="510" as="targetPoint" />
          </mxGeometry>
        </mxCell>
        <mxCell id="M14URrgiXo2bHLEp-OKY-57" value="UPDATE albums SET {params} WHERE id = {id}" style="html=1;verticalAlign=bottom;endArrow=open;curved=0;rounded=0;endFill=0;entryX=-0.038;entryY=0.234;entryDx=0;entryDy=0;entryPerimeter=0;" edge="1" parent="1" source="M14URrgiXo2bHLEp-OKY-39" target="M14URrgiXo2bHLEp-OKY-24">
          <mxGeometry x="-0.0403" y="9" relative="1" as="geometry">
            <mxPoint x="1760" y="520" as="sourcePoint" />
            <mxPoint x="1850" y="540" as="targetPoint" />
            <mxPoint as="offset" />
          </mxGeometry>
        </mxCell>
        <mxCell id="M14URrgiXo2bHLEp-OKY-58" value="Данные обновлены" style="html=1;verticalAlign=bottom;endArrow=open;dashed=1;endSize=8;curved=0;rounded=0;entryX=0.978;entryY=0.559;entryDx=0;entryDy=0;entryPerimeter=0;" edge="1" parent="1" source="M14URrgiXo2bHLEp-OKY-24" target="M14URrgiXo2bHLEp-OKY-39">
          <mxGeometry relative="1" as="geometry">
            <mxPoint x="1860" y="540.0000000000002" as="sourcePoint" />
            <mxPoint x="1760" y="540" as="targetPoint" />
          </mxGeometry>
        </mxCell>
        <mxCell id="M14URrgiXo2bHLEp-OKY-59" value="Альбом обновлен" style="html=1;verticalAlign=bottom;endArrow=open;dashed=1;endSize=8;curved=0;rounded=0;exitX=0.014;exitY=0.738;exitDx=0;exitDy=0;exitPerimeter=0;" edge="1" parent="1" source="M14URrgiXo2bHLEp-OKY-39" target="M14URrgiXo2bHLEp-OKY-8">
          <mxGeometry relative="1" as="geometry">
            <mxPoint x="1525" y="530" as="sourcePoint" />
            <mxPoint x="1305" y="530" as="targetPoint" />
          </mxGeometry>
        </mxCell>
        <mxCell id="M14URrgiXo2bHLEp-OKY-60" value="Данные артиста" style="html=1;verticalAlign=bottom;endArrow=open;dashed=1;endSize=8;curved=0;rounded=0;exitX=0.014;exitY=0.861;exitDx=0;exitDy=0;exitPerimeter=0;" edge="1" parent="1" source="M14URrgiXo2bHLEp-OKY-13" target="M14URrgiXo2bHLEp-OKY-9">
          <mxGeometry relative="1" as="geometry">
            <mxPoint x="1494" y="670" as="sourcePoint" />
            <mxPoint x="1250" y="670" as="targetPoint" />
          </mxGeometry>
        </mxCell>
        <mxCell id="M14URrgiXo2bHLEp-OKY-61" value="find(:id)" style="html=1;verticalAlign=bottom;endArrow=open;curved=0;rounded=0;endFill=0;entryX=0.137;entryY=0.18;entryDx=0;entryDy=0;entryPerimeter=0;" edge="1" parent="1" source="M14URrgiXo2bHLEp-OKY-9" target="M14URrgiXo2bHLEp-OKY-40">
          <mxGeometry relative="1" as="geometry">
            <mxPoint x="1235.7300000000002" y="710" as="sourcePoint" />
            <mxPoint x="1455" y="710" as="targetPoint" />
          </mxGeometry>
        </mxCell>
        <mxCell id="M14URrgiXo2bHLEp-OKY-62" value="SELECT * FROM albums WHERE id = {id}" style="html=1;verticalAlign=bottom;endArrow=open;curved=0;rounded=0;endFill=0;entryX=0.015;entryY=0.342;entryDx=0;entryDy=0;entryPerimeter=0;" edge="1" parent="1" source="M14URrgiXo2bHLEp-OKY-40" target="M14URrgiXo2bHLEp-OKY-25">
          <mxGeometry relative="1" as="geometry">
            <mxPoint x="1540" y="700" as="sourcePoint" />
            <mxPoint x="1920" y="700" as="targetPoint" />
          </mxGeometry>
        </mxCell>
        <mxCell id="M14URrgiXo2bHLEp-OKY-63" value="Выбранная запись" style="html=1;verticalAlign=bottom;endArrow=open;dashed=1;endSize=8;curved=0;rounded=0;exitX=-0.108;exitY=0.785;exitDx=0;exitDy=0;exitPerimeter=0;" edge="1" parent="1" source="M14URrgiXo2bHLEp-OKY-25" target="M14URrgiXo2bHLEp-OKY-40">
          <mxGeometry relative="1" as="geometry">
            <mxPoint x="1920" y="720" as="sourcePoint" />
            <mxPoint x="1540" y="720" as="targetPoint" />
          </mxGeometry>
        </mxCell>
        <mxCell id="M14URrgiXo2bHLEp-OKY-64" value="Данные альбома" style="html=1;verticalAlign=bottom;endArrow=open;dashed=1;endSize=8;curved=0;rounded=0;" edge="1" parent="1">
          <mxGeometry relative="1" as="geometry">
            <mxPoint x="1745" y="770" as="sourcePoint" />
            <mxPoint x="1235" y="770" as="targetPoint" />
          </mxGeometry>
        </mxCell>
        <mxCell id="M14URrgiXo2bHLEp-OKY-66" value="show.html" style="html=1;verticalAlign=bottom;endArrow=open;dashed=1;endSize=8;curved=0;rounded=0;entryX=0.835;entryY=0.925;entryDx=0;entryDy=0;entryPerimeter=0;" edge="1" parent="1" source="M14URrgiXo2bHLEp-OKY-69" target="M14URrgiXo2bHLEp-OKY-2">
          <mxGeometry relative="1" as="geometry">
            <mxPoint x="1019" y="839.25" as="sourcePoint" />
            <mxPoint x="900" y="850" as="targetPoint" />
          </mxGeometry>
        </mxCell>
        <mxCell id="M14URrgiXo2bHLEp-OKY-67" value="Нажимает &quot;Сохранить альбом&quot;" style="html=1;verticalAlign=bottom;endArrow=open;curved=0;rounded=0;endFill=0;entryX=-0.172;entryY=0.64;entryDx=0;entryDy=0;entryPerimeter=0;" edge="1" parent="1" source="M14URrgiXo2bHLEp-OKY-2" target="M14URrgiXo2bHLEp-OKY-16">
          <mxGeometry relative="1" as="geometry">
            <mxPoint x="915" y="320" as="sourcePoint" />
            <mxPoint x="1745" y="320" as="targetPoint" />
          </mxGeometry>
        </mxCell>
        <mxCell id="M14URrgiXo2bHLEp-OKY-68" value="AlbumsView (show.html.erb)" style="shape=umlLifeline;perimeter=lifelinePerimeter;whiteSpace=wrap;html=1;container=1;dropTarget=0;collapsible=0;recursiveResize=0;outlineConnect=0;portConstraint=eastwest;newEdgeStyle={&quot;curved&quot;:0,&quot;rounded&quot;:0};" vertex="1" parent="1">
          <mxGeometry x="1950" y="40" width="100" height="910" as="geometry" />
        </mxCell>
        <mxCell id="M14URrgiXo2bHLEp-OKY-69" value="" style="html=1;points=[[0,0,0,0,5],[0,1,0,0,-5],[1,0,0,0,5],[1,1,0,0,-5]];perimeter=orthogonalPerimeter;outlineConnect=0;targetShapes=umlLifeline;portConstraint=eastwest;newEdgeStyle={&quot;curved&quot;:0,&quot;rounded&quot;:0};" vertex="1" parent="M14URrgiXo2bHLEp-OKY-68">
          <mxGeometry x="45" y="770" width="10" height="50" as="geometry" />
        </mxCell>
        <mxCell id="M14URrgiXo2bHLEp-OKY-70" value="Рендер show.html" style="html=1;verticalAlign=bottom;endArrow=open;curved=0;rounded=0;endFill=0;exitX=1.043;exitY=0.901;exitDx=0;exitDy=0;exitPerimeter=0;" edge="1" parent="1">
          <mxGeometry relative="1" as="geometry">
            <mxPoint x="1235.4299999999998" y="820" as="sourcePoint" />
            <mxPoint x="1995" y="820" as="targetPoint" />
          </mxGeometry>
        </mxCell>
      </root>
    </mxGraphModel>
  </diagram>
</mxfile>
